<svg xmlns="http://www.w3.org/2000/svg" xmlns:xlink="http://www.w3.org/1999/xlink" width="22" height="22" viewBox="0 0 22 22"><defs><path id="7d0ma" d="M1394.819 2527h-17.636a2.201 2.201 0 0 1-2.182-2.512l1.574-11c.156-1.083 1.423-1.889 2.52-1.889h1.395v-1.1c0-3.032 2.472-5.5 5.51-5.5 3.04 0 5.512 2.2 5.512 5.5v1.1h1.732c1.097 0 2.027.806 2.182 1.889l1.575 11a2.201 2.201 0 0 1-2.182 2.511zm-12.125-15.4h6.614v-1.1c0-2.2-1.484-3.3-3.307-3.3a3.307 3.307 0 0 0-3.307 3.3zm11.945 11.944l-1.26-8.8a1.102 1.102 0 0 0-1.091-.945h-.776v2.2a1.101 1.101 0 1 1-2.205 0v-2.2h-6.613v2.2a1.101 1.101 0 0 1-2.204 0v-2.2h-.776c-.549 0-1.014.403-1.091.945l-1.26 8.8a1.1 1.1 0 0 0 1.091 1.255h15.094a1.1 1.1 0 0 0 1.09-1.255z"/></defs><g><g transform="translate(-1375 -2505)"><use fill="#171717" xlink:href="#7d0ma"/></g></g></svg>